<svg xmlns="http://www.w3.org/2000/svg" viewBox="0 0 2082 365"><g><path fill="#3000ff" d="M331 54c74.7 133.538 95.174 26.624 128 50 33 23.5 62 95.125 122 36 44.697-44.046 51.85 77.7 90 72 43.5-6.5 59-50.5 78-9s-47.5 70 9 98 93.24 21.74 123 13c156.86-46.069 252.305-43.596 286-30 28.5 11.5 78.868 36.17 110 60 32.692 25.024 110.62-91.648 193-26 40.767 32.488 70.721-112.789 101-121 29.5-8 62.768 39.744 88-17 77.254-173.732 71.246 27.565 139-30 26.673-22.662 26.244-104.067 77-66 86 64.5 207-45 207-45s0 326-1 326H0L1 0s96.567 117.12 189 110c62.752-4.833 127.426-80.266 141-56z"></path></g></svg>